<?xml version="1.0" encoding="iso-8859-1"?>
<!-- Generator: Adobe Illustrator 19.0.0, SVG Export Plug-In . SVG Version: 6.00 Build 0)  -->
<svg version="1.1" id="Capa_1" xmlns="http://www.w3.org/2000/svg" xmlns:xlink="http://www.w3.org/1999/xlink" x="0px" y="0px"
	 viewBox="0 0 512 512" style="enable-background:new 0 0 512 512;" xml:space="preserve">
<path style="fill:#FFD78C;" d="M512,256c0,141.385-114.615,256-256,256S0,397.385,0,256S114.615,0,256,0S512,114.615,512,256z"/>
<path style="fill:#5AC3A5;" d="M370,10v16.742V150v335.258C335.668,502.363,296.962,512,256,512
	c-76.897,0-145.867-33.912-192.794-87.588V150V87.588V10c0-5.523,4.477-10,10-10H360C365.523,0,370,4.477,370,10z"/>
<path style="fill:#3CAF96;" d="M73.206,0h43c-5.523,0-10,4.477-10,10v140h-0.333v313.36c-15.65-11.35-29.967-24.422-42.667-38.948
	V150V87.588V10C63.206,4.477,67.683,0,73.206,0z M236.603,470h-40c-5.523,0-10,4.477-10,10s4.477,10,10,10h40
	c5.523,0,10-4.477,10-10S242.126,470,236.603,470z"/>
<path style="fill:#9BF5F0;" d="M347.651,45.635v396.349c0,2.761-2.239,5-5,5H90.556c-2.761,0-5-2.239-5-5V45.635
	c0-2.761,2.239-5,5-5h252.095C345.412,40.635,347.651,42.873,347.651,45.635z"/>
<path style="fill:#B4FFFA;" d="M347.651,50.794v386.032c0,5.611-4.548,10.159-10.159,10.159H138.381
	c-5.611,0-10.159-4.548-10.159-10.159v-66.992C128.8,369.937,129.392,370,130,370h70c5.523,0,10-4.477,10-10v-10
	c0-5.523-4.477-10-10-10h-70c-0.608,0-1.2,0.063-1.778,0.167v-20.334C128.8,319.937,129.392,320,130,320h60c5.523,0,10-4.477,10-10
	v-10c0-5.523-4.477-10-10-10h-60c-0.608,0-1.2,0.063-1.778,0.167v-20.334C128.8,269.937,129.392,270,130,270h50
	c5.523,0,10-4.477,10-10v-10c0-5.523-4.477-10-10-10h-50c-0.608,0-1.2,0.063-1.778,0.167v-20.334C128.8,219.937,129.392,220,130,220
	h50c5.523,0,10-4.477,10-10v-10c0-5.523-4.477-10-10-10h-50c-0.608,0-1.2,0.063-1.778,0.167v-20.334
	C128.8,169.937,129.392,170,130,170h60c5.523,0,10-4.477,10-10v-10c0-5.523-4.477-10-10-10h-60c-0.608,0-1.2,0.063-1.778,0.167
	v-20.334C128.8,119.937,129.392,120,130,120h180c5.523,0,10-4.477,10-10v-10c0-5.523-4.477-10-10-10H130
	c-0.608,0-1.2,0.063-1.778,0.167V50.794c0-5.611,4.548-10.159,10.159-10.159h199.111C343.103,40.635,347.651,45.183,347.651,50.794z
	"/>
<path style="fill:#3CAF96;" d="M216.603,60.952c11.221,0,20.318-9.096,20.318-20.318c0-11.221-9.096-20.317-20.318-20.317
	c-11.221,0-20.317,9.096-20.317,20.317C196.286,51.856,205.382,60.952,216.603,60.952z"/>
<path style="fill:#147D73;" d="M226.762,40.635c0,5.611-4.548,10.159-10.159,10.159s-10.159-4.548-10.159-10.159
	s4.548-10.159,10.159-10.159C222.214,30.476,226.762,35.024,226.762,40.635z"/>
<path style="fill:#46738C;" d="M470,260c0,71.797-58.203,130-130,130s-130-58.203-130-130s58.203-130,130-130S470,188.203,470,260z"
	/>
<path style="fill:#82D2AF;" d="M413.658,246.667c0.878-6.266,1.342-12.663,1.342-19.167c0-34.911-13.088-66.816-34.603-91.091
	C367.68,132.255,354.104,130,340,130c-0.481,0-0.96,0.013-1.44,0.018c-21.388,15.055-38.323,36.025-48.362,60.538
	c-27.942,2.49-53.497,13.383-74.135,30.114c-2.627,8.287-4.45,16.93-5.369,25.844c18.775-21.26,44.79-35.982,74.159-40.238
	C281.695,217.823,280,229.966,280,242.5c0,38.866,16.214,74.013,42.227,99.045C308.365,347.001,293.276,350,277.5,350
	c-12.63,0-24.814-1.933-36.285-5.499c6.241,7.289,13.269,13.883,20.962,19.641c5.032,0.56,10.143,0.858,15.323,0.858
	c20.502,0,39.967-4.518,57.462-12.599c17.179,12.934,37.483,21.913,59.549,25.644c7.841-3.627,15.257-8.011,22.159-13.06
	c-24.74-0.166-47.761-7.696-66.974-20.513c28.195-17.466,49.637-44.833,59.436-77.212C419.226,285.059,425,305.617,425,327.5
	c0,12.194-1.819,23.966-5.152,35.089c6.974-5.436,13.377-11.569,19.109-18.292c0.676-5.508,1.043-11.11,1.043-16.797
	C440,297.312,430.214,269.372,413.658,246.667z M336.854,334.627C311.217,312.157,295,279.189,295,242.5
	c0-13.068,2.065-25.661,5.872-37.479c0.543-0.007,1.084-0.021,1.628-0.021c38.457,0,72.825,17.819,95.301,45.627
	C390.869,286.756,368.019,317.292,336.854,334.627z M399.96,230.604c-23.977-24.116-56.814-39.407-93.159-40.531
	c11.001-23.136,29.045-42.297,51.345-54.701C383.783,157.843,400,190.811,400,227.5C400,228.538,399.986,229.573,399.96,230.604z"/>
<path style="fill:#D2FAE6;" d="M405.667,270c-11.046,0-20-8.954-20-20s8.954-20,20-20s20,8.954,20,20
	C425.667,261.046,416.712,270,405.667,270z M294.833,177.5c-11.046,0-20,8.954-20,20s8.954,20,20,20s20-8.954,20-20
	S305.879,177.5,294.833,177.5z M332.5,320.167c-11.046,0-20,8.955-20,20c0,11.046,8.954,20,20,20s20-8.954,20-20
	S343.546,320.167,332.5,320.167z M358.5,115.667c-11.046,0-20,8.955-20,20c0,11.046,8.954,20,20,20s20-8.954,20-20
	C378.5,124.621,369.546,115.667,358.5,115.667z M419.848,342.589c-11.046,0-20,8.954-20,20s8.954,20,20,20s20-8.954,20-20
	S430.894,342.589,419.848,342.589z"/>
<g>
</g>
<g>
</g>
<g>
</g>
<g>
</g>
<g>
</g>
<g>
</g>
<g>
</g>
<g>
</g>
<g>
</g>
<g>
</g>
<g>
</g>
<g>
</g>
<g>
</g>
<g>
</g>
<g>
</g>
</svg>
